# xmcd
#
# Track frame offsets:
#	150
#	39312
#	65328
#	106096
#	153533
#	186672
#
# Disc length: 3091 seconds
#
# Revision: 0
# Processed by: cddbd v1.5.2PL0 Copyright (c) Steve Scherf et al.
# Submitted via: audiograbber 1.83.01
#
DISCID=4a0c1106
DTITLE=Grateful Dead - 94-10-10 USAir Arena, Landover MD
DYEAR=1900
DGENRE=
TTITLE0=Iko Iko
TTITLE1=Walkin' Blues
TTITLE2=Althea
TTITLE3=Desolation Row
TTITLE4=Loose Lucy
TTITLE5=Eternity
EXTD=
EXTT0=
EXTT1=
EXTT2=
EXTT3=
EXTT4=
EXTT5=
PLAYORDER=
